<mxfile host="Electron" modified="2024-05-22T11:17:58.902Z" agent="Mozilla/5.0 (Macintosh; Intel Mac OS X 10_15_7) AppleWebKit/537.36 (KHTML, like Gecko) draw.io/24.4.0 Chrome/120.0.6099.109 Electron/28.1.0 Safari/537.36" etag="GUlrZBqCpd6nl-T-7DNE" version="24.4.0" type="device">
  <diagram name="Page-1" id="6gULVhWcurzz5zKnDaAR">
    <mxGraphModel dx="1600" dy="1216" grid="1" gridSize="10" guides="1" tooltips="1" connect="1" arrows="1" fold="1" page="1" pageScale="1" pageWidth="1169" pageHeight="827" math="0" shadow="0">
      <root>
        <mxCell id="0" />
        <mxCell id="1" parent="0" />
        <mxCell id="DfoHDzADMynW7jO29soE-1" value="&lt;i style=&quot;border-color: var(--border-color); color: rgb(0, 0, 0); font-family: Helvetica; font-variant-ligatures: normal; font-variant-caps: normal; letter-spacing: normal; orphans: 2; text-indent: 0px; text-transform: none; widows: 2; word-spacing: 0px; -webkit-text-stroke-width: 0px; background-color: rgb(251, 251, 251); text-decoration-thickness: initial; text-decoration-style: initial; text-decoration-color: initial;&quot;&gt;&lt;font style=&quot;font-size: 23px;&quot;&gt;&lt;b&gt;W3C Verifiable Credentials Working Group Specifications&lt;/b&gt;&lt;/font&gt;&lt;/i&gt;" style="text;whiteSpace=wrap;html=1;fontSize=16;align=center;rounded=1;labelBackgroundColor=none;fontColor=#EEEEEE;" parent="1" vertex="1">
          <mxGeometry x="237.63" y="62" width="660.25" height="40" as="geometry" />
        </mxCell>
        <mxCell id="r7VOtmBWi9sTdI5Oyx6i-44" value="" style="rounded=1;whiteSpace=wrap;html=1;fontSize=16;fillColor=none;dashed=1;labelBackgroundColor=none;strokeColor=#BAC8D3;fontColor=#EEEEEE;" parent="1" vertex="1">
          <mxGeometry x="184.755" y="403" width="720" height="410" as="geometry" />
        </mxCell>
        <UserObject label="&lt;font style=&quot;font-size: 20px;&quot;&gt;VC Data Model&lt;/font&gt;&lt;br&gt;&lt;font style=&quot;font-size: 10px;&quot;&gt;&lt;i&gt;Graph based model of verifiable claims in JSON for Issuer-Holder-Verifier relationships&lt;/i&gt;&lt;/font&gt;" link="https://www.w3.org/TR/vc-data-model-2.0/" linkTarget="_blank" id="r7VOtmBWi9sTdI5Oyx6i-1">
          <mxCell style="rounded=1;whiteSpace=wrap;html=1;fontSize=16;labelBackgroundColor=none;fillColor=#09555B;strokeColor=#BAC8D3;fontColor=#EEEEEE;" parent="1" vertex="1">
            <mxGeometry x="404.755" y="162" width="280" height="80" as="geometry" />
          </mxCell>
        </UserObject>
        <UserObject label="&lt;font style=&quot;&quot;&gt;&lt;span style=&quot;font-size: 20px;&quot;&gt;JSON Schema&lt;br&gt;&lt;/span&gt;&lt;i style=&quot;font-size: 10px;&quot;&gt;JSON Schemas for the structural checking of VCs&lt;/i&gt;&lt;br&gt;&lt;/font&gt;" link="https://www.w3.org/TR/vc-json-schema/" linkTarget="_blank" id="r7VOtmBWi9sTdI5Oyx6i-7">
          <mxCell style="rounded=1;whiteSpace=wrap;html=1;fontSize=16;labelBackgroundColor=none;fillColor=#09555B;strokeColor=#BAC8D3;fontColor=#EEEEEE;" parent="1" vertex="1">
            <mxGeometry x="75.005" y="240" width="240" height="60" as="geometry" />
          </mxCell>
        </UserObject>
        <UserObject label="&lt;font style=&quot;&quot;&gt;&lt;span style=&quot;font-size: 20px;&quot;&gt;Bitstring Status List&lt;br&gt;&lt;/span&gt;&lt;i style=&quot;font-size: 10px;&quot;&gt;Publishing status information for VCs using bitstrings&lt;/i&gt;&lt;br&gt;&lt;/font&gt;" link="https://www.w3.org/TR/vc-bitstring-status-list/" linkTarget="_blank" id="r7VOtmBWi9sTdI5Oyx6i-8">
          <mxCell style="rounded=1;whiteSpace=wrap;html=1;fontSize=16;labelBackgroundColor=none;fillColor=#09555B;strokeColor=#BAC8D3;fontColor=#EEEEEE;" parent="1" vertex="1">
            <mxGeometry x="807.005" y="240" width="287.5" height="60" as="geometry" />
          </mxCell>
        </UserObject>
        <mxCell id="r7VOtmBWi9sTdI5Oyx6i-21" value="" style="edgeStyle=elbowEdgeStyle;elbow=vertical;endArrow=classic;html=1;curved=0;rounded=1;endSize=8;startSize=8;fontSize=12;exitX=0.5;exitY=0;exitDx=0;exitDy=0;entryX=1;entryY=0.75;entryDx=0;entryDy=0;labelBackgroundColor=none;strokeColor=#0B4D6A;fontColor=default;" parent="1" source="r7VOtmBWi9sTdI5Oyx6i-6" target="r7VOtmBWi9sTdI5Oyx6i-1" edge="1">
          <mxGeometry width="50" height="50" relative="1" as="geometry">
            <mxPoint x="545.005" y="340" as="sourcePoint" />
            <mxPoint x="595.005" y="290" as="targetPoint" />
            <Array as="points">
              <mxPoint x="710" y="222" />
            </Array>
          </mxGeometry>
        </mxCell>
        <mxCell id="r7VOtmBWi9sTdI5Oyx6i-23" value="" style="edgeStyle=elbowEdgeStyle;elbow=horizontal;endArrow=classic;html=1;curved=0;rounded=1;endSize=8;startSize=8;fontSize=12;exitX=0.5;exitY=0;exitDx=0;exitDy=0;entryX=0;entryY=0.5;entryDx=0;entryDy=0;labelBackgroundColor=none;strokeColor=#0B4D6A;fontColor=default;" parent="1" source="r7VOtmBWi9sTdI5Oyx6i-7" target="r7VOtmBWi9sTdI5Oyx6i-1" edge="1">
          <mxGeometry width="50" height="50" relative="1" as="geometry">
            <mxPoint x="215.005" y="190" as="sourcePoint" />
            <mxPoint x="265.005" y="140" as="targetPoint" />
            <Array as="points">
              <mxPoint x="195.005" y="230" />
            </Array>
          </mxGeometry>
        </mxCell>
        <mxCell id="r7VOtmBWi9sTdI5Oyx6i-24" value="" style="edgeStyle=elbowEdgeStyle;elbow=horizontal;endArrow=classic;html=1;curved=0;rounded=1;endSize=8;startSize=8;fontSize=12;entryX=1;entryY=0.5;entryDx=0;entryDy=0;exitX=0.5;exitY=0;exitDx=0;exitDy=0;labelBackgroundColor=none;strokeColor=#0B4D6A;fontColor=default;" parent="1" source="r7VOtmBWi9sTdI5Oyx6i-8" target="r7VOtmBWi9sTdI5Oyx6i-1" edge="1">
          <mxGeometry width="50" height="50" relative="1" as="geometry">
            <mxPoint x="1029.005" y="180" as="sourcePoint" />
            <mxPoint x="735.005" y="120" as="targetPoint" />
            <Array as="points">
              <mxPoint x="951.005" y="230" />
            </Array>
          </mxGeometry>
        </mxCell>
        <mxCell id="r7VOtmBWi9sTdI5Oyx6i-45" value="&lt;i style=&quot;border-color: var(--border-color); color: rgb(0, 0, 0); font-family: Helvetica; font-size: 16px; font-variant-ligatures: normal; font-variant-caps: normal; font-weight: 400; letter-spacing: normal; orphans: 2; text-indent: 0px; text-transform: none; widows: 2; word-spacing: 0px; -webkit-text-stroke-width: 0px; background-color: rgb(251, 251, 251); text-decoration-thickness: initial; text-decoration-style: initial; text-decoration-color: initial;&quot;&gt;Securing mechanisms of VCs&lt;/i&gt;" style="text;whiteSpace=wrap;html=1;fontSize=16;align=center;rounded=1;labelBackgroundColor=none;fontColor=#EEEEEE;" parent="1" vertex="1">
          <mxGeometry x="435.005" y="785" width="220" height="40" as="geometry" />
        </mxCell>
        <mxCell id="r7VOtmBWi9sTdI5Oyx6i-34" value="" style="rounded=1;whiteSpace=wrap;html=1;fontSize=16;fillColor=none;dashed=1;labelBackgroundColor=none;strokeColor=#BAC8D3;fontColor=#EEEEEE;" parent="1" vertex="1">
          <mxGeometry x="565.005" y="423" width="310" height="340" as="geometry" />
        </mxCell>
        <UserObject label="&lt;font style=&quot;&quot;&gt;&lt;span style=&quot;font-size: 20px;&quot;&gt;JOSE and COSE&lt;br&gt;&lt;/span&gt;&lt;span style=&quot;font-size: 10px;&quot;&gt;&lt;i&gt;Enveloping proofs using JWS, SD-JWT, or CBOR&lt;/i&gt;&lt;/span&gt;&lt;br&gt;&lt;/font&gt;" link="https://www.w3.org/TR/vc-jose-cose/" linkTarget="_blank" id="r7VOtmBWi9sTdI5Oyx6i-6">
          <mxCell style="rounded=1;whiteSpace=wrap;html=1;fontSize=16;labelBackgroundColor=none;fillColor=#09555B;strokeColor=#BAC8D3;fontColor=#EEEEEE;" parent="1" vertex="1">
            <mxGeometry x="605.005" y="443" width="237.5" height="50" as="geometry" />
          </mxCell>
        </UserObject>
        <mxCell id="r7VOtmBWi9sTdI5Oyx6i-47" value="&lt;i style=&quot;border-color: var(--border-color); color: rgb(0, 0, 0); font-family: Helvetica; font-size: 16px; font-variant-ligatures: normal; font-variant-caps: normal; font-weight: 400; letter-spacing: normal; orphans: 2; text-indent: 0px; text-transform: none; widows: 2; word-spacing: 0px; -webkit-text-stroke-width: 0px; background-color: rgb(251, 251, 251); text-decoration-thickness: initial; text-decoration-style: initial; text-decoration-color: initial;&quot;&gt;Enveloping proofs&lt;/i&gt;" style="text;whiteSpace=wrap;html=1;fontSize=16;align=center;rounded=1;labelBackgroundColor=none;fontColor=#EEEEEE;" parent="1" vertex="1">
          <mxGeometry x="613.755" y="733" width="220" height="40" as="geometry" />
        </mxCell>
        <mxCell id="r7VOtmBWi9sTdI5Oyx6i-33" value="" style="rounded=1;whiteSpace=wrap;html=1;fontSize=16;fillColor=none;dashed=1;labelBackgroundColor=none;strokeColor=#BAC8D3;fontColor=#EEEEEE;" parent="1" vertex="1">
          <mxGeometry x="215.005" y="423" width="310" height="340" as="geometry" />
        </mxCell>
        <UserObject label="&lt;span style=&quot;font-size: 20px;&quot;&gt;ECDSA Cryptosuites&lt;/span&gt;&lt;br&gt;&lt;font style=&quot;font-size: 10px;&quot;&gt;&lt;i&gt;Data Integrity with NIST elliptic curves&lt;/i&gt;&lt;/font&gt;" link="https://www.w3.org/TR/vc-di-ecdsa/" linkTarget="_blank" id="r7VOtmBWi9sTdI5Oyx6i-3">
          <mxCell style="rounded=1;whiteSpace=wrap;html=1;fontSize=16;labelBackgroundColor=none;fillColor=#09555B;strokeColor=#BAC8D3;fontColor=#EEEEEE;" parent="1" vertex="1">
            <mxGeometry x="295.005" y="533" width="215" height="50" as="geometry" />
          </mxCell>
        </UserObject>
        <UserObject label="&lt;span style=&quot;font-size: 20px;&quot;&gt;EdDSA Cryptosuites&lt;/span&gt;&lt;br&gt;&lt;font style=&quot;font-size: 10px;&quot;&gt;&lt;i&gt;Data Integrity with Edwards elliptic curves&lt;/i&gt;&lt;/font&gt;" link="https://www.w3.org/TR/vc-di-eddsa/" linkTarget="_blank" id="r7VOtmBWi9sTdI5Oyx6i-4">
          <mxCell style="rounded=1;whiteSpace=wrap;html=1;fontSize=16;labelBackgroundColor=none;fillColor=#09555B;strokeColor=#BAC8D3;fontColor=#EEEEEE;" parent="1" vertex="1">
            <mxGeometry x="295.005" y="593" width="215" height="50" as="geometry" />
          </mxCell>
        </UserObject>
        <UserObject label="&lt;span style=&quot;font-size: 20px;&quot;&gt;BBS Cryptosuites&lt;/span&gt;&lt;br&gt;&lt;font style=&quot;font-size: 10px;&quot;&gt;&lt;i&gt;Data Integrity with BBS selective disclosures&lt;/i&gt;&lt;/font&gt;" link="https://www.w3.org/TR/vc-di-bbs/" linkTarget="_blank" id="r7VOtmBWi9sTdI5Oyx6i-5">
          <mxCell style="rounded=1;whiteSpace=wrap;html=1;fontSize=16;labelBackgroundColor=none;fillColor=#09555B;strokeColor=#BAC8D3;fontColor=#EEEEEE;" parent="1" vertex="1">
            <mxGeometry x="295.005" y="653" width="215" height="50" as="geometry" />
          </mxCell>
        </UserObject>
        <UserObject label="&lt;font style=&quot;font-size: 20px;&quot;&gt;Data Integrity&lt;/font&gt;&lt;br&gt;&lt;font style=&quot;font-size: 10px;&quot;&gt;&lt;i&gt;General structure of embedded proofs&lt;/i&gt;&lt;/font&gt;" link="https://www.w3.org/TR/vc-data-integrity/" linkTarget="_blank" id="r7VOtmBWi9sTdI5Oyx6i-2">
          <mxCell style="rounded=1;whiteSpace=wrap;html=1;fontSize=16;labelBackgroundColor=none;fillColor=#09555B;strokeColor=#BAC8D3;fontColor=#EEEEEE;" parent="1" vertex="1">
            <mxGeometry x="269.005" y="443" width="215" height="50" as="geometry" />
          </mxCell>
        </UserObject>
        <mxCell id="r7VOtmBWi9sTdI5Oyx6i-37" value="" style="edgeStyle=elbowEdgeStyle;elbow=horizontal;endArrow=classic;html=1;curved=0;rounded=1;endSize=8;startSize=8;fontSize=12;entryX=0;entryY=0.5;entryDx=0;entryDy=0;exitX=0;exitY=0.5;exitDx=0;exitDy=0;labelBackgroundColor=none;strokeColor=#0B4D6A;fontColor=default;" parent="1" source="r7VOtmBWi9sTdI5Oyx6i-3" target="r7VOtmBWi9sTdI5Oyx6i-2" edge="1">
          <mxGeometry width="50" height="50" relative="1" as="geometry">
            <mxPoint x="235.005" y="572" as="sourcePoint" />
            <mxPoint x="285.005" y="522" as="targetPoint" />
            <Array as="points">
              <mxPoint x="245.005" y="513" />
            </Array>
          </mxGeometry>
        </mxCell>
        <mxCell id="r7VOtmBWi9sTdI5Oyx6i-38" value="" style="edgeStyle=elbowEdgeStyle;elbow=horizontal;endArrow=classic;html=1;curved=0;rounded=1;endSize=8;startSize=8;fontSize=12;entryX=0;entryY=0.5;entryDx=0;entryDy=0;exitX=0;exitY=0.5;exitDx=0;exitDy=0;labelBackgroundColor=none;strokeColor=#0B4D6A;fontColor=default;" parent="1" source="r7VOtmBWi9sTdI5Oyx6i-4" target="r7VOtmBWi9sTdI5Oyx6i-2" edge="1">
          <mxGeometry width="50" height="50" relative="1" as="geometry">
            <mxPoint x="275.005" y="663" as="sourcePoint" />
            <mxPoint x="249.005" y="573" as="targetPoint" />
            <Array as="points">
              <mxPoint x="245.005" y="543" />
            </Array>
          </mxGeometry>
        </mxCell>
        <mxCell id="r7VOtmBWi9sTdI5Oyx6i-39" value="" style="edgeStyle=elbowEdgeStyle;elbow=horizontal;endArrow=classic;html=1;curved=0;rounded=1;endSize=8;startSize=8;fontSize=12;entryX=0;entryY=0.5;entryDx=0;entryDy=0;exitX=0;exitY=0.5;exitDx=0;exitDy=0;labelBackgroundColor=none;strokeColor=#0B4D6A;fontColor=default;" parent="1" source="r7VOtmBWi9sTdI5Oyx6i-5" target="r7VOtmBWi9sTdI5Oyx6i-2" edge="1">
          <mxGeometry width="50" height="50" relative="1" as="geometry">
            <mxPoint x="275.005" y="683" as="sourcePoint" />
            <mxPoint x="249.005" y="593" as="targetPoint" />
            <Array as="points">
              <mxPoint x="245.005" y="573" />
            </Array>
          </mxGeometry>
        </mxCell>
        <mxCell id="r7VOtmBWi9sTdI5Oyx6i-46" value="&lt;i style=&quot;border-color: var(--border-color); color: rgb(0, 0, 0); font-family: Helvetica; font-size: 16px; font-variant-ligatures: normal; font-variant-caps: normal; font-weight: 400; letter-spacing: normal; orphans: 2; text-indent: 0px; text-transform: none; widows: 2; word-spacing: 0px; -webkit-text-stroke-width: 0px; background-color: rgb(251, 251, 251); text-decoration-thickness: initial; text-decoration-style: initial; text-decoration-color: initial;&quot;&gt;Embedded proofs&lt;/i&gt;" style="text;whiteSpace=wrap;html=1;fontSize=16;align=center;rounded=1;labelBackgroundColor=none;fontColor=#EEEEEE;" parent="1" vertex="1">
          <mxGeometry x="266.505" y="733" width="220" height="40" as="geometry" />
        </mxCell>
        <mxCell id="iExSj8y2DTFrv8wI0oQc-2" value="" style="edgeStyle=elbowEdgeStyle;elbow=vertical;endArrow=classic;html=1;curved=0;rounded=1;endSize=8;startSize=8;fontSize=12;entryX=0;entryY=0.75;entryDx=0;entryDy=0;labelBackgroundColor=none;strokeColor=#0B4D6A;fontColor=default;exitX=0.5;exitY=0;exitDx=0;exitDy=0;" parent="1" source="r7VOtmBWi9sTdI5Oyx6i-2" target="r7VOtmBWi9sTdI5Oyx6i-1" edge="1">
          <mxGeometry width="50" height="50" relative="1" as="geometry">
            <mxPoint x="379" y="440" as="sourcePoint" />
            <mxPoint x="340" y="222" as="targetPoint" />
            <Array as="points">
              <mxPoint x="365" y="222" />
            </Array>
          </mxGeometry>
        </mxCell>
        <UserObject label="&lt;font style=&quot;&quot;&gt;&lt;span style=&quot;font-size: 20px;&quot;&gt;Controller Documents&lt;/span&gt;&lt;/font&gt;&lt;div&gt;&lt;font style=&quot;&quot;&gt;&lt;i style=&quot;font-size: 10px;&quot;&gt;Common definitions of verification methods and relationships&lt;/i&gt;&lt;br&gt;&lt;/font&gt;&lt;/div&gt;" link="https://www.w3.org/TR/controller-document/" linkTarget="_blank" id="iExSj8y2DTFrv8wI0oQc-3">
          <mxCell style="rounded=1;whiteSpace=wrap;html=1;fontSize=16;labelBackgroundColor=none;fillColor=#09555B;strokeColor=#BAC8D3;fontColor=#EEEEEE;" parent="1" vertex="1">
            <mxGeometry x="424.755" y="290" width="240" height="70" as="geometry" />
          </mxCell>
        </UserObject>
        <mxCell id="iExSj8y2DTFrv8wI0oQc-4" value="" style="edgeStyle=elbowEdgeStyle;elbow=vertical;endArrow=classic;html=1;curved=0;rounded=1;endSize=8;startSize=8;fontSize=12;entryX=0.25;entryY=1;entryDx=0;entryDy=0;labelBackgroundColor=none;strokeColor=#0B4D6A;fontColor=default;exitX=0.75;exitY=0;exitDx=0;exitDy=0;" parent="1" source="r7VOtmBWi9sTdI5Oyx6i-2" target="iExSj8y2DTFrv8wI0oQc-3" edge="1">
          <mxGeometry width="50" height="50" relative="1" as="geometry">
            <mxPoint x="420" y="443" as="sourcePoint" />
            <mxPoint x="448" y="222" as="targetPoint" />
            <Array as="points">
              <mxPoint x="450" y="380" />
            </Array>
          </mxGeometry>
        </mxCell>
        <mxCell id="iExSj8y2DTFrv8wI0oQc-5" value="" style="edgeStyle=elbowEdgeStyle;elbow=vertical;endArrow=classic;html=1;curved=0;rounded=1;endSize=8;startSize=8;fontSize=12;entryX=0.75;entryY=1;entryDx=0;entryDy=0;labelBackgroundColor=none;strokeColor=#0B4D6A;fontColor=default;exitX=0.25;exitY=0;exitDx=0;exitDy=0;" parent="1" source="r7VOtmBWi9sTdI5Oyx6i-6" target="iExSj8y2DTFrv8wI0oQc-3" edge="1">
          <mxGeometry width="50" height="50" relative="1" as="geometry">
            <mxPoint x="540.26" y="453" as="sourcePoint" />
            <mxPoint x="595.26" y="370" as="targetPoint" />
            <Array as="points">
              <mxPoint x="560.26" y="390" />
            </Array>
          </mxGeometry>
        </mxCell>
      </root>
    </mxGraphModel>
  </diagram>
</mxfile>
